<svg xmlns="http://www.w3.org/2000/svg" width="50" height="36" viewBox="0 0 50 36"><defs><clipPath id="3sqoa"><path fill="#fff" d="M49 18.009s0 7.807-1.003 11.55a6.012 6.012 0 0 1-4.244 4.243C40.01 34.804 25 34.804 25 34.804s-15.01 0-18.753-1.002a6.012 6.012 0 0 1-4.244-4.244C1 25.816 1 18.008 1 18.008S1 10.2 2.003 6.459a6.01 6.01 0 0 1 4.244-4.243C9.99 1.212 25 1.212 25 1.212s15.01 0 18.753 1.003a6.01 6.01 0 0 1 4.244 4.243C49 10.2 49 18.008 49 18.008zm-16.33 0l-12.47-7.2v14.397z"/></clipPath></defs><g><g><path fill="#fff" d="M49 18.009s0 7.807-1.003 11.55a6.012 6.012 0 0 1-4.244 4.243C40.01 34.804 25 34.804 25 34.804s-15.01 0-18.753-1.002a6.012 6.012 0 0 1-4.244-4.244C1 25.816 1 18.008 1 18.008S1 10.2 2.003 6.459a6.01 6.01 0 0 1 4.244-4.243C9.99 1.212 25 1.212 25 1.212s15.01 0 18.753 1.003a6.01 6.01 0 0 1 4.244 4.243C49 10.2 49 18.008 49 18.008zm-16.33 0l-12.47-7.2v14.397z"/><path fill="none" stroke="#fff" stroke-linecap="round" stroke-linejoin="round" stroke-miterlimit="20" stroke-width="2" d="M49 18.009s0 7.807-1.003 11.55a6.012 6.012 0 0 1-4.244 4.243C40.01 34.804 25 34.804 25 34.804s-15.01 0-18.753-1.002a6.012 6.012 0 0 1-4.244-4.244C1 25.816 1 18.008 1 18.008S1 10.2 2.003 6.459a6.01 6.01 0 0 1 4.244-4.243C9.99 1.212 25 1.212 25 1.212s15.01 0 18.753 1.003a6.01 6.01 0 0 1 4.244 4.243C49 10.2 49 18.008 49 18.008zm-16.33 0l-12.47-7.2v14.397z" clip-path="url(&quot;#3sqoa&quot;)"/></g></g></svg>