<svg xmlns="http://www.w3.org/2000/svg" width="42" height="42" viewBox="0 0 42 42"><defs><clipPath id="kndra"><path fill="#fff" d="M21 1.135c-11.046 0-20 8.953-20 19.995 0 9.98 7.313 18.252 16.875 19.753V26.91h-5.078v-5.78h5.078v-4.404c0-5.012 2.986-7.78 7.554-7.78 2.188 0 4.477.39 4.477.39v4.921h-2.522c-2.484 0-3.26 1.541-3.26 3.122v3.751h5.548l-.887 5.78h-4.66v13.973C33.686 39.383 41 31.11 41 21.13c0-11.042-8.954-19.995-20-19.995z"/></clipPath></defs><g><g><path fill="#fff" d="M21 1.135c-11.046 0-20 8.953-20 19.995 0 9.98 7.313 18.252 16.875 19.753V26.91h-5.078v-5.78h5.078v-4.404c0-5.012 2.986-7.78 7.554-7.78 2.188 0 4.477.39 4.477.39v4.921h-2.522c-2.484 0-3.26 1.541-3.26 3.122v3.751h5.548l-.887 5.78h-4.66v13.973C33.686 39.383 41 31.11 41 21.13c0-11.042-8.954-19.995-20-19.995z"/><path fill="none" stroke="#fff" stroke-linecap="round" stroke-linejoin="round" stroke-miterlimit="20" stroke-width="2" d="M21 1.135c-11.046 0-20 8.953-20 19.995 0 9.98 7.313 18.252 16.875 19.753V26.91v0h-5.078v0-5.78 0h5.078v0-4.404c0-5.012 2.986-7.78 7.554-7.78 2.188 0 4.477.39 4.477.39v4.921h-2.522c-2.484 0-3.26 1.541-3.26 3.122v3.751h5.548v0l-.887 5.78v0h-4.66v13.973C33.686 39.383 41 31.11 41 21.13c0-11.042-8.954-19.995-20-19.995z" clip-path="url(&quot;#kndra&quot;)"/></g></g></svg>