<svg xmlns="http://www.w3.org/2000/svg" width="42" height="42" viewBox="0 0 42 42"><defs><clipPath id="pypua"><path fill="#fff" d="M41 12.927V29.09c0 6.57-5.346 11.914-11.916 11.914H12.916C6.346 41.004 1 35.66 1 29.09V12.927C1 6.358 6.346 1.014 12.916 1.014h16.168C35.654 1.014 41 6.358 41 12.927zM36.976 29.09V12.927a7.891 7.891 0 0 0-7.892-7.89H12.916a7.891 7.891 0 0 0-7.892 7.89V29.09a7.89 7.89 0 0 0 7.892 7.89h16.168a7.89 7.89 0 0 0 7.892-7.89zm-5.63-8.08c0 5.702-4.642 10.342-10.346 10.342-5.705 0-10.345-4.64-10.345-10.343 0-5.704 4.64-10.343 10.345-10.343 5.704 0 10.345 4.64 10.345 10.343zm-4.025 0A6.32 6.32 0 0 0 21 14.688a6.32 6.32 0 1 0 0 12.64 6.32 6.32 0 0 0 6.321-6.32zm4.044-12.745a2.479 2.479 0 1 1 .001 4.957 2.479 2.479 0 0 1 0-4.957z"/></clipPath></defs><g><g><path fill="#fff" d="M41 12.927V29.09c0 6.57-5.346 11.914-11.916 11.914H12.916C6.346 41.004 1 35.66 1 29.09V12.927C1 6.358 6.346 1.014 12.916 1.014h16.168C35.654 1.014 41 6.358 41 12.927zM36.976 29.09V12.927a7.891 7.891 0 0 0-7.892-7.89H12.916a7.891 7.891 0 0 0-7.892 7.89V29.09a7.89 7.89 0 0 0 7.892 7.89h16.168a7.89 7.89 0 0 0 7.892-7.89zm-5.63-8.08c0 5.702-4.642 10.342-10.346 10.342-5.705 0-10.345-4.64-10.345-10.343 0-5.704 4.64-10.343 10.345-10.343 5.704 0 10.345 4.64 10.345 10.343zm-4.025 0A6.32 6.32 0 0 0 21 14.688a6.32 6.32 0 1 0 0 12.64 6.32 6.32 0 0 0 6.321-6.32zm4.044-12.745a2.479 2.479 0 1 1 .001 4.957 2.479 2.479 0 0 1 0-4.957z"/><path fill="none" stroke="#fff" stroke-linecap="round" stroke-linejoin="round" stroke-miterlimit="20" stroke-width="2" d="M41 12.927V29.09c0 6.57-5.346 11.914-11.916 11.914H12.916C6.346 41.004 1 35.66 1 29.09V12.927C1 6.358 6.346 1.014 12.916 1.014h16.168C35.654 1.014 41 6.358 41 12.927zM36.976 29.09V12.927a7.891 7.891 0 0 0-7.892-7.89H12.916a7.891 7.891 0 0 0-7.892 7.89V29.09a7.89 7.89 0 0 0 7.892 7.89h16.168a7.89 7.89 0 0 0 7.892-7.89zm-5.63-8.08c0 5.702-4.642 10.342-10.346 10.342-5.705 0-10.345-4.64-10.345-10.343 0-5.704 4.64-10.343 10.345-10.343 5.704 0 10.345 4.64 10.345 10.343zm-4.025 0A6.32 6.32 0 0 0 21 14.688a6.32 6.32 0 1 0 0 12.64 6.32 6.32 0 0 0 6.321-6.32zm4.044-12.745a2.479 2.479 0 1 1 .001 4.957 2.479 2.479 0 0 1 0-4.957z" clip-path="url(&quot;#pypua&quot;)"/></g></g></svg>